<svg xmlns="http://www.w3.org/2000/svg" version="1.1" xmlns:xlink="http://www.w3.org/1999/xlink" xmlns:svgjs="http://svgjs.dev/svgjs" viewBox="0 0 800 800"><defs><linearGradient x1="50%" y1="0%" x2="50%" y2="100%" id="wwwhirl-grad"><stop stop-color="hsl(206, 75%, 49%)" stop-opacity="1" offset="45%"></stop><stop stop-color="#424874" stop-opacity="1" offset="100%"></stop></linearGradient></defs><g stroke-width="2" stroke="url(#wwwhirl-grad)" fill="none" stroke-linecap="round"><path d="M-111.50002696990957 466.9820314761508C-92.12502643238403 439.082030702114 -57.250025464838046 335.67765283334023 -18.500024389786972 333.0620277607743C20.2499766852641 330.4464026882083 35.74997711528454 445.12703086982197 74.49997819033561 454.42703112783425C113.24997926538663 463.7270313858465 128.7499796954072 378.57390402342173 167.49998077045825 377.7020289992331C206.2499818455093 376.8301539750445 221.74998227552976 451.6951560520431 260.49998335058086 450.2420310117287C299.24998442563185 448.78890597141435 314.74998485565226 373.63327888635274 353.49998593070336 370.72702880572393C392.2499870057545 367.82077872509507 407.74998743577487 433.09515553601864 446.4999885108259 436.2920306247104C485.2499895858771 439.48890571340206 500.74999001589754 380.2595290701865 539.4999910909486 386.07202923144416C578.2499921659995 391.8845293927018 593.74999259602 472.32953162450787 632.4999936710711 464.1920313987471C671.2499947461223 456.05453117298634 686.7499951761426 347.5932781639184 725.4999962511938 347.01202814779265C764.2499973262449 346.4307781316669 779.7499977562654 450.64890602301676 818.4999988313162 461.40203132134343C857.2499999063673 472.15515661967015 892.1250008739135 411.7051549425904 911.5000014114389 398.6270295797607 " transform="rotate(222.75, 400, 400)"></path><path d="M-96.00002707741467 464.95227676126774C-77.212147768299 437.89773055614114 -43.39396501189077 337.6268186833908 -5.8182063936594375 335.0904549766602C31.757552224571896 332.5540912699296 46.78785567186446 443.7595489005853 84.3636142900958 452.7777309689608C121.93937290832719 461.7959130373363 136.96967635561975 379.2231834737729 174.54543497385106 378.3777289048627C212.12119359208242 377.5322743359525 227.151497039375 450.12863998637545 264.7272556576063 448.71954903819176C302.30301427583765 447.3104580900081 317.33331772313016 374.4322742499484 354.90907634136147 371.6140923535811C392.48483495959283 368.7959104572137 407.5151384068854 432.09227584962446 445.09089702511676 435.1922759356285C482.666655643348 438.2922760216326 497.6969590906407 380.857728973666 535.2727177088719 386.4940927664007C572.8484763271033 392.1304565591354 587.8787797743958 470.1377314505837 625.4545383926272 462.24682214075506C663.0302970108586 454.35591283092646 678.060600458151 349.18136445849694 715.6363590763825 348.61772807922347C753.2121176946139 348.05409169995005 768.2424211419064 449.1140945036832 805.8181797601378 459.54136752024243C843.3939383783691 469.9686405368017 877.2121211347771 411.3504570923607 896.000000443893 398.66863855870764 " transform="rotate(216, 400, 400)"></path><path d="M-80.50002718491977 462.9225144169901C-62.29926910421398 436.7134227807738 -29.537904558943495 339.5759769040469 6.863611602468097 337.1188745631516C43.26512776387972 334.66177222225633 57.82573422844436 442.39205930195396 94.22725038985598 451.1284231806928C130.62876655126763 459.86478705943153 145.1893730158323 379.87245529472955 181.59088917724387 379.05342118109775C217.9924053386555 378.234387067466 232.55301180322022 448.56211629131326 268.9545279646318 447.1970594352603C305.3560441260434 445.83200257920737 319.916650590608 375.23126198414957 356.31816675201964 372.5011482720437C392.71968291343126 369.7710345599378 407.2802893779959 431.0893885338357 443.6818055394075 434.0925136171521C480.08332170081917 437.0956387004686 494.64392816538384 381.45592124775095 531.0454443267954 386.9161486719627C567.446960488207 392.37637609617445 582.0075669527716 467.945923647265 618.4090831141833 460.3016052533685C654.810599275595 452.65728685947204 669.3712057401596 350.76944312368096 705.7727219015712 350.22342038125976C742.1742380629829 349.6773976388386 756.7348445275476 447.57927535495514 793.1363606889591 457.68069608974685C829.5378768503706 467.7821168245386 862.299241395641 410.99575161273646 880.499999476347 398.71023990826006 " transform="rotate(209.25, 400, 400)"></path><path d="M-64.99999677484676 460.8927558874098C-47.386359922550824 435.5291188201037 -15.681813588418109 341.5251389394002 19.545460116173786 339.1472979643403C54.772733820765666 336.7694569892803 68.86364330260241 441.02457351802 104.09091700719429 449.47911920712204C139.3181907117862 457.93366489622406 153.40910019362298 380.52173093038346 188.63637389821486 379.7291172720301C223.86364760280674 378.9365036136768 237.95455708464357 446.99559641094834 273.1818307892354 445.67457364702614C308.40910449382733 444.35355088310394 322.50001397566405 376.030253533048 357.72728768025587 373.3882080052036C392.9545613848477 370.7461624773592 407.0454708666846 430.0865050327442 442.27274457127646 432.99275511337305C477.50001827586834 435.89900519400186 491.5909277577051 382.0541173365332 526.818201462297 387.338208392222C562.0454751668889 392.62229944791073 576.1363846487255 465.7541196586435 611.3636583533175 458.3563921806792C646.5909320579094 450.9586647027149 660.6818415397462 352.3575256035622 695.9091152443382 351.8291164979933C731.1363889489302 351.30070739242444 745.2272984307667 446.04446002092436 780.4545721353586 455.8200284739486C815.6818458399504 465.59559692697286 847.3863921740831 410.6410499478095 865.0000290263791 398.7518450725097 " transform="rotate(202.5, 400, 400)"></path><path d="M-49.499996882351866 458.8629973578295C-32.473481258465796 434.34481485943354 -1.8257531354708334 343.47430097475353 32.22727811230132 341.17572136552894C66.28030936007349 338.8771417563043 79.90152185918234 439.65708773408596 113.95455310695448 447.8298152335513C148.00758435472665 456.00254273301664 161.62879685383552 381.1710065660373 195.68182810160772 380.40481336296244C229.73485934937986 379.6386201598876 243.35607184848874 445.42907653058336 277.40910309626094 444.1520878587919C311.4621343440331 442.8750991870005 325.0833468431419 376.82924508194634 359.13637809091404 374.2752677383634C393.1894093386861 371.72129039478057 406.810621837795 429.08362153165274 440.8636530855672 431.8929966095939C474.9166843333394 434.70237168753516 488.53789683244827 382.6523134253154 522.5909280802205 387.76026811248124C556.6439593279925 392.868222799647 570.2651718271014 463.56231567002203 604.3182030748736 456.4111791079899C638.3712343226458 449.26004254595773 651.9924468217546 353.94560808344346 686.0454780695268 353.43481261472687C720.098509317299 352.9240171460103 733.7197218164079 444.5096446868935 767.77275306418 453.9593608581503C801.8257843119521 463.40907702940706 832.473512434947 410.2863482828825 849.5000280588331 398.7934502367594 " transform="rotate(195.75, 400, 400)"></path><path d="M-33.99999698985698 456.83323882824914C-17.560602594380768 433.1605108987634 12.030307317476428 345.42346301010684 44.909096108428855 343.20414476671755C77.78788489938128 340.98482652332825 90.93940041576224 438.289601950152 123.81818920671466 446.18051125998056C156.6969779976671 454.07142056980916 169.84849351404813 381.8202822016912 202.72728230500053 381.08050945389476C235.60607109595293 380.34073670609837 248.75758661233397 443.86255665021844 281.63637540328637 442.6296020705577C314.5151641942388 441.396647490897 327.66667971061975 377.62823663084475 360.54546850157215 375.1623274715233C393.4242572925246 372.6964183122019 406.5757728089056 428.0807380305613 439.45456159985804 430.79323810581485C472.33335039081044 433.5057381810684 485.4848659071914 383.25050951409764 518.3636546981439 388.1823278327405C551.2424434890962 393.11414615138335 564.3939590054771 461.3705116814006 597.2727477964297 454.4659660353006C630.1515365873822 447.5614203892006 643.3030521037631 355.53369056332474 676.1818408947156 355.0405087314605C709.060629685668 354.54732689959616 722.2121452020491 442.9748293528627 755.0909339930014 452.098693242352C787.9697227839537 461.2225571318413 817.5606326958108 409.9316466179555 834.0000270912872 398.8350554010091 " transform="rotate(189, 400, 400)"></path><path d="M-18.499997097362083 454.80348029866883C-2.64772393029574 431.9762069380933 25.886367770423703 347.37262504546015 57.59091410455642 345.2325681679062C89.29546043868908 343.09251129035226 101.97727897234216 436.92211616621796 133.68182530647488 444.5312072864098C165.38637164060756 452.1402984066017 178.06819017426068 382.46955783734506 209.7727365083934 381.7562055448271C241.47728284252605 381.0428532523091 254.1591013761792 442.29603676985346 285.86364771031185 441.10711628232355C317.56819404444457 439.9181957947935 330.2500125780976 378.42722817974317 361.9545589122303 376.0493872046832C393.659105246363 373.67154622962323 406.3409237800161 427.0778545294698 438.04547011414877 429.6934796020357C469.7500164482815 432.3091046746017 482.43183498193457 383.8487056028798 514.1363813160674 388.60438755299975C545.8409276502 393.3600695031197 558.522746183853 459.17870769277914 590.2272925179857 452.52075296261125C621.9318388521185 445.8627982324434 634.6136573857715 357.12177304320596 666.3182037199043 356.646204848194C698.022750054037 356.170636653182 710.7045685876901 441.4400140188319 742.4091149218227 450.23802562655374C774.1136612559554 459.03603723427557 802.6477529566748 409.57694495302854 818.5000261237412 398.87666056525876 " transform="rotate(182.25, 400, 400)"></path><path d="M-2.9999972048671992 452.7737217690885C12.265154733789288 430.79190297742315 39.74242822337098 349.3217870808135 70.27273210068392 347.26099156909487C100.8030359779969 345.2001960573763 113.01515752892209 435.554630382284 143.54546140623506 442.8819033128391C174.07576528354804 450.2091762433942 186.28788683447326 383.118833472999 216.8181907117862 382.4319016357594C247.34849458909912 381.7449697985199 259.56061614002436 440.72951688948854 290.09092001733734 439.5846304940893C320.6212238946503 438.4397440986901 332.8333454455755 379.2262197286416 363.3636493228884 376.9364469378431C393.8939532002014 374.6466741470446 406.1060747511266 426.0749710283783 436.6363786284396 428.59372109825665C467.16668250575253 431.11247116813496 479.37880405667784 384.44690169166205 509.90910793399075 389.026447273259C540.4394118113037 393.60599285485597 552.6515333622287 456.9869037041577 583.1818372395418 450.57553988992197C613.7121411168548 444.1641760756862 625.92426266778 358.70985552308724 656.454566545093 358.2519009649276C686.9848704224061 357.7939464067679 699.1969919733313 439.90519868480106 729.7272958506442 448.3773580107554C760.257599727957 456.8495173367098 787.7348732175386 409.22224328810154 803.0000251561952 398.91826572950845 " transform="rotate(175.5, 400, 400)"></path><path d="M12.500002687627699 450.74396323950816C27.178033397874316 429.60759901675306 53.598488676318254 351.27094911616683 82.95455009681149 349.28941497028353C112.31061151730472 347.30788082440023 124.05303608550201 434.18714459835 153.40909750599525 441.2325993392684C182.76515892648848 448.27805408018673 194.5075834946858 383.7681091086529 223.86364491517907 383.1075977266918C253.2197063356723 382.4470863447307 264.9621309038696 439.1629970091236 294.3181923243629 438.0621447058551C323.67425374485606 436.9612924025866 335.41667831305335 380.02521127753994 364.7727397335466 377.823506671003C394.12880115403976 375.621802064466 405.87122572223717 425.07208752728684 435.2272871427304 427.4939625944775C464.5833485632236 429.9158376616682 476.3257731314209 385.0450977804443 505.6818345519141 389.4485069935183C535.0378959724073 393.85191620659225 546.7803205406046 454.79509971553625 576.1363819610979 448.6303268172327C605.4924433815912 442.4655539189291 617.2348679497885 360.2979380029685 646.5909293702817 359.8575970816611C675.9469907907751 359.4172561603537 687.6894153589723 438.3703833507703 717.0454767794655 446.51669039495715C746.4015381999587 454.6629974391441 772.8219934784026 408.8675416231746 787.5000241886493 398.95987089375814 " transform="rotate(168.75, 400, 400)"></path><path d="M28.000002580122597 448.7142085246251C42.090912061959344 428.4232988707802 67.45454912926552 353.2201149662174 95.63636809293902 351.31784218616946C123.81818705661254 349.4155694061215 135.09091464208194 432.8196626291133 163.27273360575543 439.5832991803949C191.45455256942893 446.3469357316765 202.72728015489838 384.417388559004 230.90909911857187 383.78329763232136C259.09091808224537 383.1492067056387 270.3636456677148 437.5964809434559 298.5454646313883 436.53966273231816C326.7272835950618 435.4828445211804 338.0000111805312 380.8242066411356 366.1818301442047 378.71057021886014C394.36364910787825 376.5969337965846 405.6363766933477 424.06920784089266 433.81819565702114 426.3942079053957C462.0000146206947 428.7192079698988 473.2727422061641 385.6432976839238 501.4545611698376 389.87057052847484C529.636380133511 394.09784337302585 540.9091077189804 452.60329954161205 569.090926682654 446.6851175592406C597.2727456463275 440.7669355768692 608.545473231797 361.886024297547 636.7272921954705 361.46329701309196C664.909111159144 361.04056972863685 676.1818387446135 436.8355718314367 704.3636577082868 444.65602659385615C732.5454766719603 452.47648135627554 757.9091137392664 408.51284377294485 772.0000232211032 399.00147987270503 " transform="rotate(162, 400, 400)"></path><path d="M43.50000247261748 446.68444618034755C57.00379072604437 427.2389910954128 81.31060958221279 355.1692731868735 108.31818608906656 353.34626177266085C135.3257625959203 351.52325035844825 146.12879319866187 431.452173030482 173.13636970551562 437.9339913921269C200.1439462123694 444.4158097537718 210.94697681511096 385.06666037996064 237.95455332196468 384.4589899085564C264.96212982881855 383.8513194371522 275.76516043156005 436.0299572483937 302.7727369384138 435.0171731293867C329.7803134452676 434.00438901037967 340.58334404800905 381.62319437533677 367.59092055486286 379.5976261373227C394.59849706171667 377.5720578993087 405.4015276644582 423.0663205251039 432.409104171312 425.2944455869193C459.4166806781657 427.52257064873476 470.21971128090723 386.24148995800874 497.22728778776104 390.29262643403683C524.2348642946147 394.3437629100649 535.0378948973562 450.41149173829336 562.04547140421 444.73990067185406C589.0530479110639 439.06830960541475 599.8560785138054 363.474102962731 626.8636550206592 363.0689893151282C653.871231527513 362.6638756675254 664.6742621302545 435.30075268270866 691.6818386371083 442.79535516336057C718.6894151439619 450.2899576440125 742.9962340001304 408.1581382933206 756.5000222535573 399.04308122225746 " transform="rotate(155.25, 400, 400)"></path><path d="M59.00000236511238 444.65469146546445C71.9166693901294 426.05469094943993 95.16667003516005 357.1184390369241 121.00000408519412 355.3746889885468C146.83333813522813 353.6309389401695 157.1666717552418 430.0846910612453 183.0000058052758 436.28469123325345C208.83333985530987 442.48469140526163 219.1666734753235 385.71593983031175 245.00000752535757 385.134689814186C270.8333415753916 384.55343979806025 281.1666751954052 434.463441182726 307.0000092454393 433.49469115584975C332.83334329547336 432.5259411289735 343.16667691548696 382.42218973893245 369.00001096552097 380.4846896851799C394.83334501555504 378.54718963142733 405.1666786355687 422.06344083870965 431.0000126856027 424.1946908978375C456.8333467356368 426.3259409569653 467.16668035565044 386.83968986148824 493.0000144056845 390.71468996899335C518.8333484557185 394.58969007649847 529.1666820757321 448.2196915643692 555.0000161257661 442.794691413862C580.8333501758003 437.36969126335487 591.1666837958139 365.06218925730957 617.000017845848 364.67468924655907C642.8333518958821 364.2871892358085 653.1666855158957 433.7659411633751 679.0000195659296 440.93469136225957C704.8333536159636 448.103441561144 728.0833542609943 407.8034404430909 741.0000212860114 399.0846902012044 " transform="rotate(148.5, 400, 400)"></path><path d="M74.50000225760726 442.6249291211869C86.82954805421443 424.8703831740726 109.02273048810733 359.06759725758013 133.68182208132166 357.4031085750382C158.34091367453595 355.7386198924962 168.2045503118217 428.717201462614 192.863641905036 434.63538344498545C217.52273349825032 440.55356542735683 227.38637013553608 386.3652116512684 252.0454617287504 385.81038209042106C276.7045533219647 385.2555525295738 286.56818995925045 432.8969174876638 311.2272815524648 431.9722015529183C335.8863731456791 431.04748561817274 345.7500097829648 383.2211774731336 370.40910137617914 381.37174560364247C395.06819296939346 379.52231373415145 404.93182960667923 421.06055352292094 429.5909211998935 423.0949285793611C454.25001279310777 425.1293036358013 464.1136494303936 387.4378821355732 488.77274102360786 391.13674587455534C513.4318326168222 394.8356096135375 523.2954692541078 446.0278837610505 547.9545608473222 440.84947452647543C572.6136524405366 435.6710652919004 582.4772890778223 366.6502679224935 607.1363806710367 366.2803815485953C631.7954722642511 365.91049517469713 641.6591089015368 432.23112201464704 666.318200494751 439.074019931764C690.9772920879653 445.916917848881 713.1704745218582 407.4487349634666 725.5000203184653 399.12629155075683 " transform="rotate(141.75, 400, 400)"></path><path d="M90.00000215010216 440.5951705916066C101.74242671829946 423.6860792134024 122.8787909410546 361.01675929293344 146.3636400774492 359.43153197622684C169.84848921384378 357.84630465952023 179.2424288684016 427.34971567868 202.7272780047962 432.9860794714147C226.2121271411908 438.6224432641494 235.60606679574863 387.0144872869223 259.0909159321433 386.48607818135343C282.57576506853786 385.9576690757845 291.9697047230957 431.3303976072989 315.45455385949026 430.4497157646841C338.93940299588485 429.5690339220693 348.33334265044266 384.02016902203195 371.81819178683725 382.25880533680237C395.30304092323183 380.4974416515728 404.6969805777897 420.0576700218295 428.1818297141843 421.99517007558205C451.6666788505789 423.9326701293346 461.0606185051368 388.03607822435544 484.54546764153133 391.55880559481466C508.03031677792586 395.0815329652738 517.4242564324836 443.836079772429 540.9091055688783 438.90426145378615C564.393954705273 433.9724431351433 573.7878943598307 368.2383504023748 597.2727434962254 367.8860776653289C620.75759263262 367.53380492828296 630.1515322871778 430.6963066806162 653.6363814235724 437.2133523159657C677.121230559967 443.73039795131524 698.2575947827221 407.09403329853967 710.0000193509194 399.16789671500646 " transform="rotate(135, 400, 400)"></path><path d="M105.50000204259705 438.5654120620262C116.65530538238448 422.50177525273233 136.73485139400185 362.9659213282868 159.04545807357673 361.4599553774155C181.3560647531516 359.9539894265442 190.28030742498152 425.982229894746 212.5909141045564 431.336775497844C234.90152078413124 436.69132110094193 243.82576345596124 387.66376292257615 266.136370135536 387.16177427228575C288.44697681511093 386.6597856219953 297.3712194869409 429.7638777269339 319.68182616651575 428.9272299764499C341.99243284609065 428.0905822259658 350.91667551792057 384.81916057093036 373.2272821974954 383.14586506996227C395.53788887707026 381.4725695689941 404.46213154890023 419.054786520738 426.7727382284751 420.8954115718029C449.0833449080499 422.73603662286786 458.0075875798799 388.63427431313767 480.3181942594548 391.9808653150739C502.6288009390296 395.32745631701016 511.5530436108595 441.64427578380753 533.8636502904344 436.95904838109686C556.1742569700093 432.2738209783861 565.0984996418392 369.8264328822561 587.4091063214141 369.49177378206247C609.719713000989 369.15711468186885 618.6439556728191 429.1614913465854 640.9545623523939 435.35268470016746C663.2651690319686 441.5438780537495 683.344715043586 406.73933163361266 694.5000183833735 399.20950187925615 " transform="rotate(128.25, 400, 400)"></path><path d="M121.00000193509194 436.5356535324459C131.56818404646953 421.3174712920622 150.59091184694915 364.9150833636401 171.72727606970426 363.48837877860416C192.8636402924594 362.0616741935682 201.31818598156144 424.614744110812 222.45455020431658 429.68747152427323C243.5909144270717 434.76019893773446 252.04546011617379 388.31303855823006 273.1818243389289 387.8374703632181C294.318188561684 387.3619021682061 302.77273425078613 428.197357846569 323.90909847354123 427.40474418821566C345.0454626962964 426.6121305298624 353.5000083853984 385.6181521198288 374.6363726081536 384.0329248031221C395.7727368309087 382.4476974864155 404.2272825200107 418.05190301964655 425.36364674276587 419.7956530680238C446.50001096552097 421.5394031164011 454.9545566546231 389.2324704019199 476.0909208773782 392.40292503533317C497.2272851001333 395.57337966874644 505.68183078923533 439.4524717951861 526.8181950119905 435.0138353084075C547.9545592347456 430.57519882162893 556.4091049238477 371.4145153621373 577.545469146603 371.097469898796C598.681833369358 370.7804244354547 607.1363790584601 427.6266760125546 628.2727432812151 433.49201708436914C649.4091075039703 439.3573581561837 668.4318353044499 406.38462996868566 679.0000174158274 399.25110704350584 " transform="rotate(121.5, 400, 400)"></path><path d="M136.50000182758683 434.5058950028656C146.48106271055454 420.1331673313921 164.4469722998964 366.86424539899343 184.40909406583182 365.5168021797928C204.3712158317672 364.16935896059215 212.35606453814137 423.247258326878 232.3181863040768 428.0381675507025C252.28030807001215 432.829076774527 260.26515677638633 388.96231419388397 280.22727854232176 388.5131664541504C300.1894003082572 388.0640187144169 308.1742490146313 426.63083796620407 328.1363707805667 425.8822583999815C348.09849254650214 425.1336788337589 356.08334125287627 386.4171436687272 376.0454630188117 384.919984536282C396.00758478474705 383.4228254038369 403.9924334911213 417.04901951855504 423.95455525705665 418.6958945642447C443.916677022992 420.3427696099344 451.90152572936626 389.83066649070213 471.8636474953016 392.8249847555924C491.825769261237 395.8193030204828 499.8106179676111 437.2606678065647 519.7727397335466 433.06862223571824C539.7348614994821 428.8765766648718 547.7197102058561 373.0025978420186 567.6818319717916 372.7031660155296C587.6439537377271 372.4037341890405 595.6288024441012 426.0918606785238 615.5909242100365 431.6313494685709C635.5530459759719 437.17083825861795 653.5189555653138 406.0299283037587 663.5000164482815 399.2927122077555 " transform="rotate(114.75, 400, 400)"></path><path d="M151.99998646129268 432.47613647328524C161.3939261158505 418.94886337072194 178.30301749405461 368.8134074343468 197.09089680317027 367.5452255809815C215.87877611228595 366.27704372761616 223.39392783593223 421.879772542944 242.1818071450479 426.38886357713176C260.9696864541636 430.8979546113195 268.4848381778099 389.6115898295378 287.27271748692556 389.1888625450827C306.0605967960412 388.7661352606276 313.5757485196875 425.0643180858391 332.36362782880315 424.35977261174725C351.1515071379188 423.6552271376554 358.6666588615651 387.2161352176256 377.45453817068073 385.8070442694419C396.2424174797964 384.3979533212582 403.7575692034427 416.0461360174636 422.5454485125584 417.5961360604656C441.333327821674 419.14613610346765 448.84847954532034 390.42886257948436 467.63635885443597 393.24704447585174C486.42423816355165 396.06522637221906 493.9393898871979 435.0688638179432 512.7272691963136 431.1234091630289C531.5151485054294 427.1779545081146 539.0303002290755 374.59068032189987 557.8181795381913 374.30886213226313C576.6060588473069 374.0270439426264 584.1212105709533 424.55704534449296 602.9090898800689 429.77068185277255C621.6969691891845 434.9843183610522 638.6060605673886 405.6752266388317 648.0000002219465 399.33431737200516 " transform="rotate(108, 400, 400)"></path><path d="M167.49998635378756 430.44637794370493C176.30680477993553 417.76455941005185 192.1590779470019 370.7625694697001 209.77271479929783 369.57364898217014C227.38635165159377 368.38472849464017 234.43180639251216 420.51228675901 252.0454432448081 424.739559603561C269.65908009710404 428.96683244811203 276.7045348380224 390.2608654651917 294.31817169031837 389.86455863601503C311.9318085426143 389.4682518068384 318.9772632835327 423.49779820547417 336.59090013582863 422.83728682351307C354.2045369881246 422.17677544155197 361.24999172904296 388.01512676652396 378.86362858133884 386.69410400260176C396.4772654336348 385.37308123867956 403.5227201745532 415.0432525163721 421.13635702684917 416.4963775566865C438.7499938791451 417.94950259700096 445.7954486200635 391.0270586682666 463.40908547235944 393.669104196111C481.0227223246554 396.3111497239554 488.0681770655737 432.87705982932175 505.6818139178697 429.1781960903396C523.2954507701656 425.47933235135747 530.340905511084 376.1787628017811 547.95454236338 375.9145582489967C565.5681792156761 375.6503536962122 572.6136339565943 423.0222300104622 590.2272708088902 427.9100142369743C607.8409076611861 432.7977984634864 623.6931808282525 405.32052497390475 632.4999992544006 399.37592253625485 " transform="rotate(101.25, 400, 400)"></path><path d="M182.99998624628245 428.41661941412457C191.21968344402057 416.5802554493817 206.01513839994914 372.7117315050534 222.45453279542537 371.6020723833588C238.8939271909016 370.4924132616641 245.46968494909206 419.144800975076 261.9090793445683 423.0902556299903C278.3484737400445 427.03571028490455 284.92423149823503 390.9101411008456 301.3636258937112 390.5402547269474C317.80302028918743 390.1703683530492 324.3787780473779 421.9312783251092 340.8181724428541 421.31480103527883C357.2575668383304 420.69832374544853 363.8333245965208 388.8141183154224 380.272718991997 387.58116373576166C396.7121133874732 386.34820915610095 403.28787114566376 414.04036901528065 419.72726554113996 415.39661905290745C436.16665993661616 416.7528690905342 442.74241769480665 391.6252547570488 459.1818120902829 394.09116391637025C475.62120648575905 396.5570730756917 482.1969642439495 430.6852558407003 498.6363586394258 427.2329830176503C515.075753034902 423.78071019460026 521.6515107930925 377.76684528166237 538.0909051885687 377.52025436573024C554.530299584045 377.27366344979805 561.1060573422355 421.48741467643134 577.5454517377116 426.049346621176C593.9848461331878 430.61127856592066 608.7803010891164 404.96582330897775 616.9999982868545 399.41752770050454 " transform="rotate(94.5, 400, 400)"></path><path d="M198.49998613877733 426.38686088454426C206.1325621081056 415.3959514887116 219.87119885289644 374.66089354040673 235.1363507915529 373.63049578454746C250.4015027302094 372.60009802868814 256.507563505672 417.777315191142 271.77271544432847 421.44095165641954C287.0378673829849 425.10458812169713 293.1439281584476 391.5594167364995 308.40908009710404 391.21595081787973C323.6742320357605 390.8724848992599 329.78029281122315 420.36475844474427 345.0454447498796 419.79231524704466C360.31059668853607 419.21987204934504 366.4166574639987 389.6131098643208 381.6818094026552 388.46822346892156C396.94696134131163 387.32333707352234 403.05302211677423 413.03748551418914 418.31817405543075 414.2968605491283C433.5833259940872 415.5562355840675 439.68938676954986 392.22345084583105 454.9545387082063 394.5132236366295C470.2196906468628 396.80299642742796 476.3257514223253 428.49345185207886 491.5909033609818 425.287769944961C506.85605529963834 422.0820880378431 512.962116075101 379.35492776154365 528.2272680137575 379.1259504824638C543.4924199524139 378.89697320338394 549.5984807278766 419.9525993424005 564.863632666533 424.1886790053777C580.1287846051894 428.4247586683549 593.8674213499803 404.6111216440508 601.4999973193085 399.4591328647542 " transform="rotate(87.75, 400, 400)"></path><path d="M213.99998603127221 424.3571023549639C221.0454407721906 414.21164752804145 233.7272593058437 376.6100555757601 247.81816878768046 375.6589191857361C261.9090782695172 374.7077827957121 267.54544206225194 416.409829407208 281.63635154408865 419.7916476828488C295.7272610259254 423.17346595848966 301.3636248186601 392.2086923721534 315.4545343004969 391.89164690881205C329.5454437823336 391.5746014454707 335.1818075750683 418.79823856437935 349.2727170569051 418.2698294588105C363.36362653874187 417.74142035324155 368.9999903314765 390.4121014132192 383.0908998133133 389.3552832020814C397.18180929515006 388.29846499094367 402.8181730878848 412.0346020130977 416.9090825697215 413.1971020453492C430.99999205155825 414.35960207760075 436.636355844293 392.8216469346133 450.7272653261297 394.93528335688876C464.81817480796644 397.0489197791643 470.45453860070114 426.3016478634574 484.5454480825379 423.3425568722717C498.6363575643747 420.38346588108595 504.27272135710945 380.9430102414249 518.3636308389462 380.73164659919735C532.4545403207829 380.52028295696977 538.0909041135177 418.4177840083697 552.1818135953544 422.32801138957944C566.2727230771911 426.2382387707891 578.9545416108442 404.2564199791238 585.9999963517625 399.5007380290039 " transform="rotate(81, 400, 400)"></path><path d="M229.49998592376713 422.3273438253836C235.95831943627564 413.02734356737136 247.58331975879096 378.5592176111134 260.499986783808 377.68734258692473C273.416653808825 376.8154675627361 278.58332061883186 415.042343623274 291.49998764384884 418.14234370927807C304.4166546688659 421.2423437952822 309.5833214788727 392.85796800780724 322.4999885038897 392.56734299974437C335.41665552890674 392.2767179916815 340.58332233891355 417.23171868401437 353.4999893639306 416.74734367057624C366.4166563889476 416.2629686571381 371.5833231989544 391.21109296211756 384.4999902239714 390.2423429352413C397.4166572489885 389.273592908365 402.5833240589953 411.0317185120062 415.4999910840123 412.0973435415701C428.4166581090293 413.162968571134 433.58332491903616 393.4198430233955 446.4999919440532 395.3573430771481C459.41665896907017 397.29484313090063 464.583325779077 424.109843874836 477.499992804094 421.39734379958236C490.4166598291111 418.6848437243288 495.5833266391179 382.53109272130615 508.49999366413493 382.3373427159309C521.416660689152 382.14359271055565 526.5833274991587 416.88296867433894 539.4999945241757 420.4673437737811C552.4166615491927 424.05171887322336 564.0416618717081 403.90171831419684 570.4999953842166 399.54234319325354 " transform="rotate(74.25, 400, 400)"></path><path d="M244.999985816262 420.2975852958033C250.87119810036066 411.8430396067012 261.43938021173824 380.5083796464667 273.18180477993553 379.7157659881134C284.9242293481328 378.9231523297601 289.62119917541173 413.67485783934 301.363623743609 416.4930397357073C313.1060483118063 419.3112216320747 317.8030181390852 393.50724364346115 329.5454427072826 393.2430390906767C341.28786727547987 392.9788345378923 345.9848371027588 415.66519880364945 357.72726167095607 415.22485788234206C369.46968623915336 414.7845169610346 374.16665606643227 392.010084511016 385.90908063462956 391.1294026684012C397.65150520282685 390.2487208257864 402.34847503010576 410.02883501091475 414.09089959830305 410.997585037791C425.83332416650035 411.9663350646673 430.5302939937793 394.01803911217775 442.2727185619766 395.77940279740733C454.0151431301739 397.5407664826369 458.71211295745275 421.9180398862145 470.4545375256501 419.4521307268931C482.19696209384745 416.98622156757165 486.8939319211263 384.11917520118743 498.63635648932365 383.94303883266446C510.37878105752094 383.7669024641415 515.0757508847998 415.3481533403081 526.8181754529971 418.60667615798286C538.5606000211944 421.8651989756576 549.128782132572 403.54701664926984 554.9999944166707 399.58394835750323 " transform="rotate(67.5, 400, 400)"></path><path d="M260.4999857087569 418.2678267662229C265.7840767644457 410.6587356460311 275.2954406646855 382.4575416818201 285.86362277606304 381.74418938930205C296.43180488744065 381.03083709678407 300.65907773199166 412.307372055406 311.2272598433692 414.8437357621366C321.7954419547468 417.38009946886723 326.02271479929783 394.156519279115 336.5908969106754 393.918735181609C347.15907902205294 393.680951084103 351.386351866604 414.09867892328447 361.95453397798155 413.70237209410783C372.52271608935916 413.3060652649312 376.7499889339101 392.8090760599144 387.3181710452877 392.01646240156106C397.8863531566653 391.2238487432078 402.1136260012163 409.02595150982324 412.6818081125939 409.8978265340119C423.2499902239714 410.76970155820055 427.47726306852246 394.61623520096 438.04544517990007 396.2014625176666C448.61362729127757 397.7866898343732 452.84090013582863 419.726235897593 463.4090822472062 417.5069176542038C473.97726435858374 415.28759941081444 478.2045372031348 385.70725768106865 488.7727193145124 385.548734949398C499.3409014258899 385.39021221772737 503.568174270441 413.8133380062773 514.1363563818185 416.74600854218454C524.7045384931961 419.6786790780919 534.215902393436 403.19231498434283 539.4999934491246 399.6255535217529 " transform="rotate(60.75, 400, 400)"></path><path d="M275.9999856012518 416.2380682366426C280.6969554285307 409.47443168536097 289.1515011176328 384.4067037171734 298.5454407721906 383.7726127904907C307.93938042674847 383.1385218638081 311.6969562885716 410.939886271472 321.09089594312945 413.1944317885659C330.48483559768727 415.44897730565975 334.24241145951044 394.8057949147689 343.63635111406825 394.5944312725414C353.03029076862606 394.3830676303138 356.78786663044923 412.53215904291955 366.18180628500704 412.17988630587365C375.57574593956485 411.8276135688277 379.333321801388 393.6080676088128 388.72726145594584 392.90352213472096C398.12120111050365 392.1989766606291 401.8787769723268 408.0230680087318 411.27271662688463 408.7980680302328C420.66665628144244 409.57306805173386 424.4242321432656 395.21443128974215 433.8181717978234 396.62352223792584C443.2121114523813 398.03261318610953 446.9696873142044 417.5344319089716 456.3636269687623 415.56170458151445C465.75756662332014 413.5889772540573 469.5151424851432 387.29534016094993 478.9090821397011 387.15443106613156C488.30302179425894 387.0135219713132 492.0605976560821 412.2785226722465 501.4545373106399 414.8853409263863C510.84847696519773 417.4921591805261 519.3030226542998 402.8376133194159 523.9999924815787 399.6671586860026 " transform="rotate(54, 400, 400)"></path><path d="M291.50000075253575 414.2083097070623C295.6098493514048 408.2901277246909 303.0075768293691 386.3558657525267 311.2272740271072 385.8010361916794C319.44697122484536 385.2462066308321 322.7348501039406 409.572400487538 330.95454730167864 411.54512781499517C339.1742444994168 413.5178551424523 342.46212337851205 395.4550705504228 350.6818205762501 395.2701273634737C358.90151777398825 395.0851841765246 362.18939665308346 410.9656391625546 370.4090938508216 410.6574005176394C378.6287910485597 410.34916187272427 381.91666992765494 394.40705915771116 390.136367125393 393.79058186788086C398.35606432313114 393.17410457805045 401.6439432022264 407.0201845076403 409.86364039996454 407.6983095264537C418.0833375977026 408.3764345452671 421.3712164767978 395.8126273785244 429.59091367453595 397.04558195818515C437.8106108722741 398.27853653784587 441.09848975136924 415.34262792035014 449.3181869491074 413.61649150882516C457.53788414684556 411.89035509730013 460.8257630259408 388.8834226408312 469.0454602236789 388.7601271828651C477.26515742141703 388.636831724899 480.5530363005123 410.7437073382157 488.7727334982503 413.024673310588C496.99243069598845 415.3056392829603 504.3901581739527 402.4829116544889 508.5000067728218 399.70876385025224 " transform="rotate(47.25, 400, 400)"></path><path d="M307.00000064503064 412.17855117748195C310.52272801548986 407.1058237640207 316.8636372823164 388.30502778788 323.90909202323473 387.82945959286803C330.9545467641531 387.35389139785605 333.7727286605205 408.204914703604 340.8181834014389 409.89582384142443C347.8636381423572 411.5867329792448 350.6818200387246 396.10434618607667 357.727274779643 395.945823454406C364.77272952056137 395.7873007227354 367.5909114169287 409.39911928218964 374.6363661578471 409.13491472940524C381.68182089876547 408.8707101766208 384.5000027951328 395.2060507066096 391.5454575360512 394.6776416010407C398.59091227696956 394.14923249547184 401.40909417333694 406.01730100654885 408.45454891425527 406.5985510226746C415.50000365517366 407.17980103880035 418.31818555154103 396.4108234673066 425.3636402924594 397.4676416784444C432.40909503337775 398.52445988958215 435.22727692974513 413.1508239317287 442.27273167066346 411.6712784361358C449.3181864115819 410.191732940543 452.1363683079493 390.47150512071244 459.1818230488676 390.3658232995987C466.227277789786 390.2601414784849 469.0454596861534 409.20889200418486 476.0909144270717 411.1640056947897C483.1363691679901 413.1191193853946 489.47727843481664 402.1282099895619 493.0000058052758 399.7503690145019 " transform="rotate(40.5, 400, 400)"></path><path d="M322.5000005375255 410.14879264790164C325.43560667957485 405.92151980335063 330.71969773526365 390.2541898232334 336.5909100193623 389.8578829940567C342.46212230346094 389.46157616488006 344.81060721710037 406.83742891967 350.681819501199 408.2465198678537C356.55303178529766 409.6556108160373 358.90151669893714 396.7536218217306 364.7727289830358 396.62151954533834C370.64394126713444 396.4894172689461 372.9924261807739 407.8325994018247 378.86363846487257 407.612428941171C384.7348507489712 407.39225848051734 387.0833356626107 396.005042255508 392.95454794670934 395.5647013342006C398.825760230808 395.1243604128932 401.1742451444474 405.01441750545735 407.04545742854606 405.4987925188955C412.9166697126447 405.98316753233365 415.2651546262842 397.00901955608884 421.13636691038283 397.88970139870366C427.0075791944815 398.7703832413184 429.3560641081209 410.95901994310725 435.22727639221955 409.72606536344654C441.09848867631825 408.4931107837858 443.4469735899577 392.0595876005937 449.3181858740563 391.9715194163322C455.189398158155 391.88345123207074 457.53788307179445 407.6740766701541 463.4090953558931 409.30333807899143C469.28030763999175 410.93259948782884 474.56439869568055 401.7735083246349 477.5000048377299 399.7919741787516 " transform="rotate(33.75, 400, 400)"></path><path d="M337.9999966153232 408.11903411832134C340.3484815289626 404.7372158426805 344.57575437351363 392.2033518585867 349.2727242007926 391.88630639524536C353.9696940280715 391.56926093190407 355.84848195898303 405.469943135736 360.545451786262 406.59721589428295C365.2424216135409 407.7244886528299 367.1212095444525 397.4028974573845 371.8181793717314 397.29721563627066C376.5151491990103 397.1915338151569 378.3939371299219 406.2660795214598 383.0909069572008 406.0899431529368C387.7878767844797 405.91380678441385 389.6666647153913 396.8040338044064 394.3636345426702 396.4517610673605C399.0606043699491 396.09948833031456 400.9393923008607 404.0115340043659 405.6363621281396 404.3990340151164C410.3333319554185 404.7865340258669 412.2121198863301 397.6072156448711 416.909089713609 398.3117611189629C421.60605954088794 399.01630659305476 423.48484747179947 408.7672159544858 428.1818172990784 407.78085229075725C432.87878712635734 406.79448862702867 434.75757505726887 393.64767008047494 439.45454488454783 393.5772155330658C444.15151471182674 393.50676098565657 446.0303026427383 406.13926133612324 450.7272724700172 407.44267046319317C455.42424229729613 408.74607959026304 459.65151514184714 401.4188066597079 462.0000000554866 399.8335793430013 " transform="rotate(27, 400, 400)"></path><path d="M353.4999965078181 406.089275588741C355.26136019304766 403.55291188201033 358.43181482646094 394.15251389394 361.9545421969201 393.914729796434C365.47726956737927 393.676945698928 366.88636051556296 404.102457351802 370.4090878860222 404.9479119207122C373.93181525648134 405.79336648962243 375.34090620466503 398.05217309303833 378.86363357512425 397.97291172720304C382.3863609455834 397.8936503613677 383.7954518937671 404.6995596410948 387.3181792642263 404.5674573647026C390.84090663468544 404.4353550883104 392.2499975828691 397.6030253533048 395.7727249533283 397.33882080052035C399.2954523237875 397.0746162477359 400.7045432719712 403.00865050327445 404.22727064243037 403.2992755113373C407.7499980128896 403.5899005194002 409.1590889610733 398.2054117336533 412.68181633153245 398.7338208392222C416.2045437019916 399.2622299447911 417.6136346501753 406.57541196586436 421.13636202063446 405.8356392180679C424.6590893910937 405.0958664702715 426.0681803392774 395.2357525603562 429.59090770973654 395.18291164979934C433.11363508019576 395.13007073924246 434.52272602837945 404.60444600209246 438.0454533988386 405.58200284739485C441.5681807692978 406.5595596926973 444.73863540271105 401.06410499478096 446.49999908794064 399.875184507251 " transform="rotate(20.25, 400, 400)"></path><path d="M368.99999640031297 404.05951705916067C370.17423885713265 402.36860792134024 372.2878752794082 396.1016759292934 374.63636019304766 395.9431531976227C376.9848451066871 395.78463046595203 377.9242390721429 402.734971567868 380.27272398578236 403.2986079471415C382.62120889942184 403.86224432641495 383.5606028648776 398.70144872869224 385.90908777851706 398.64860781813536C388.2575726921565 398.5957669075784 389.1969666576123 403.1330397607299 391.54545157125176 403.0449715764684C393.89393648489124 402.9569033922069 394.83333045034703 398.4020169022032 397.18181536398646 398.22588053368025C399.5303002776259 398.0497441651573 400.4696942430817 402.00576700218295 402.81817915672116 402.1995170075582C405.16666407036064 402.39326701293345 406.10605803581643 398.80360782243554 408.45454294945586 399.1558805594815C410.80302786309534 399.5081532965274 411.7424218285511 404.3836079772429 414.09090674219055 403.8904261453786C416.43939165583004 403.3972443135143 417.37878562128583 396.8238350402375 419.7272705349253 396.7886077665329C422.07575544856473 396.7533804928283 423.0151494140205 403.0696306680616 425.36363432765995 403.7213352315966C427.71211924129943 404.37303979513155 429.8257556635749 400.70940332985396 430.9999981203947 399.9167896715006 " transform="rotate(13.5, 400, 400)"></path><path d="M384.5000001075051 402.0297585295803C385.08712133591496 401.18430396067015 386.1439395470527 398.0508379646467 387.3181820038725 397.97157659881134C388.4924244606922 397.892315232976 388.9621214434201 401.367485783934 390.1363639002398 401.64930397357074C391.31060635705956 401.9311221632075 391.78030333978745 399.3507243643461 392.95454579660714 399.3243039090677C394.1287882534269 399.2978834537892 394.5984852361548 401.5665198803649 395.7727276929745 401.52248578823423C396.94697014979425 401.47845169610343 397.41666713252215 399.2010084511016 398.5909095893419 399.1129402668401C399.7651520461616 399.02487208257867 400.23484902888947 401.00288350109145 401.4090914857092 401.09975850377907C402.58333394252895 401.19663350646675 403.05303092525685 399.40180391121777 404.22727338207653 399.57794027974074C405.40151583889633 399.75407664826366 405.87121282162417 402.1918039886215 407.0454552784439 401.9452130726893C408.21969773526365 401.69862215675715 408.68939471799155 398.4119175201187 409.8636371748113 398.39430388326645C411.037879631631 398.37669024641417 411.50757661435887 401.5348153340308 412.6818190711786 401.86066761579826C413.85606152799835 402.18651989756574 414.9128797391361 400.354701664927 415.500000967546 399.9583948357503 " transform="rotate(6.75, 400, 400)"></path></g></svg>